<?xml version="1.0" encoding="UTF-8"?>
<svg id="Layer_6" data-name="Layer 6" xmlns="http://www.w3.org/2000/svg" viewBox="0 0 800 800">
  <defs>
    <style>
      .cls-1 {
        fill: #231f20;
      }
    </style>
  </defs>
  <path class="cls-1" d="M300.39,345.33c-169.25,33.7-220.25,128.42-190.64,186.88,31.15,61.52,117.4,52.23,263.95,16.59,12.55-3.05-216.57,35.69-227.83-52.83-13.6-106.92,154.53-150.64,154.53-150.64Z"/>
  <path class="cls-1" d="M300.32,345.32c-1.83,17.17,8.5,95.7,120.73,162.8,120.72,72.17,241.86,64.16,268.5,32.18,29.07-34.89-20.04-105.24-75.96-138.25-24.57-9.23,49.93,43.16,27.81,88.13-14.95,30.39-80.66,37.02-224.19-29.03-90.35-43.7-117.57-90.2-116.9-115.84Z"/>
  <path class="cls-1" d="M194.13,350.96c202.49-198.75,355.58-124.69,386.75-51.93,39.22,91.56-19.01,145.52-96.65,153.96,0,0,100.36-58.44,31.94-150.76-104.21-140.6-349.57,75.75-322.03,48.73Z"/>
</svg>